<mxfile host="65bd71144e">
    <diagram id="gV2dLtmXxzQS49iepWvz" name="Page-1">
        <mxGraphModel dx="1786" dy="957" grid="0" gridSize="10" guides="1" tooltips="1" connect="1" arrows="1" fold="1" page="0" pageScale="1" pageWidth="1100" pageHeight="850" math="0" shadow="0">
            <root>
                <mxCell id="0"/>
                <mxCell id="1" parent="0"/>
                <mxCell id="25" value="" style="shape=internalStorage;whiteSpace=wrap;html=1;backgroundOutline=1;dx=86;dy=63;" vertex="1" parent="1">
                    <mxGeometry x="437" y="-243" width="209" height="137" as="geometry"/>
                </mxCell>
                <mxCell id="11" style="edgeStyle=none;html=1;entryX=0;entryY=0.25;entryDx=0;entryDy=0;" edge="1" parent="1" source="4" target="7">
                    <mxGeometry relative="1" as="geometry"/>
                </mxCell>
                <mxCell id="12" style="edgeStyle=none;html=1;entryX=0;entryY=0.5;entryDx=0;entryDy=0;" edge="1" parent="1" source="4" target="8">
                    <mxGeometry relative="1" as="geometry"/>
                </mxCell>
                <mxCell id="13" style="edgeStyle=none;html=1;entryX=0;entryY=0.5;entryDx=0;entryDy=0;" edge="1" parent="1" source="4" target="9">
                    <mxGeometry relative="1" as="geometry"/>
                </mxCell>
                <mxCell id="14" style="edgeStyle=none;html=1;entryX=0;entryY=0.75;entryDx=0;entryDy=0;" edge="1" parent="1" source="4" target="10">
                    <mxGeometry relative="1" as="geometry"/>
                </mxCell>
                <mxCell id="4" value="" style="sketch=0;pointerEvents=1;shadow=0;dashed=0;html=1;strokeColor=none;labelPosition=center;verticalLabelPosition=bottom;verticalAlign=top;align=center;fillColor=#515151;shape=mxgraph.mscae.system_center.admin_console" vertex="1" parent="1">
                    <mxGeometry x="-185" y="-211" width="113" height="86" as="geometry"/>
                </mxCell>
                <mxCell id="5" value="&lt;b&gt;Programer&lt;/b&gt;" style="text;html=1;strokeColor=none;fillColor=none;align=center;verticalAlign=middle;whiteSpace=wrap;rounded=0;" vertex="1" parent="1">
                    <mxGeometry x="-187" y="-118" width="83" height="30" as="geometry"/>
                </mxCell>
                <mxCell id="16" style="edgeStyle=none;html=1;entryX=0;entryY=0.107;entryDx=0;entryDy=0;entryPerimeter=0;" edge="1" parent="1" source="7" target="15">
                    <mxGeometry relative="1" as="geometry"/>
                </mxCell>
                <mxCell id="7" value="Process 1" style="rounded=0;whiteSpace=wrap;html=1;" vertex="1" parent="1">
                    <mxGeometry x="26" y="-254" width="119" height="34" as="geometry"/>
                </mxCell>
                <mxCell id="17" style="edgeStyle=none;html=1;entryX=0;entryY=0.374;entryDx=0;entryDy=0;entryPerimeter=0;" edge="1" parent="1" source="8" target="15">
                    <mxGeometry relative="1" as="geometry"/>
                </mxCell>
                <mxCell id="8" value="Process 2" style="rounded=0;whiteSpace=wrap;html=1;" vertex="1" parent="1">
                    <mxGeometry x="26" y="-204" width="119" height="34" as="geometry"/>
                </mxCell>
                <mxCell id="18" style="edgeStyle=none;html=1;entryX=0;entryY=0.642;entryDx=0;entryDy=0;entryPerimeter=0;" edge="1" parent="1" source="9" target="15">
                    <mxGeometry relative="1" as="geometry"/>
                </mxCell>
                <mxCell id="9" value="Process 3" style="rounded=0;whiteSpace=wrap;html=1;" vertex="1" parent="1">
                    <mxGeometry x="26" y="-154" width="119" height="34" as="geometry"/>
                </mxCell>
                <mxCell id="19" style="edgeStyle=none;html=1;entryX=0;entryY=0.909;entryDx=0;entryDy=0;entryPerimeter=0;" edge="1" parent="1" source="10" target="15">
                    <mxGeometry relative="1" as="geometry"/>
                </mxCell>
                <mxCell id="10" value="Process 4" style="rounded=0;whiteSpace=wrap;html=1;" vertex="1" parent="1">
                    <mxGeometry x="26" y="-104" width="119" height="34" as="geometry"/>
                </mxCell>
                <mxCell id="26" style="edgeStyle=none;html=1;entryX=0;entryY=0.423;entryDx=0;entryDy=0;entryPerimeter=0;" edge="1" parent="1" source="15" target="20">
                    <mxGeometry relative="1" as="geometry"/>
                </mxCell>
                <mxCell id="15" value="&lt;b&gt;Tmux&lt;/b&gt;" style="rounded=0;whiteSpace=wrap;html=1;" vertex="1" parent="1">
                    <mxGeometry x="235" y="-257" width="95" height="187" as="geometry"/>
                </mxCell>
                <mxCell id="20" value="" style="shape=internalStorage;whiteSpace=wrap;html=1;backgroundOutline=1;dx=86;dy=63;" vertex="1" parent="1">
                    <mxGeometry x="421" y="-222" width="209" height="137" as="geometry"/>
                </mxCell>
                <mxCell id="21" value="&lt;b&gt;pane 1&lt;/b&gt;&lt;br&gt;process 1" style="text;html=1;strokeColor=none;fillColor=none;align=center;verticalAlign=middle;whiteSpace=wrap;rounded=0;" vertex="1" parent="1">
                    <mxGeometry x="434" y="-205" width="62" height="30" as="geometry"/>
                </mxCell>
                <mxCell id="22" value="&lt;b&gt;pane 2&lt;/b&gt;&lt;br&gt;process 2" style="text;html=1;strokeColor=none;fillColor=none;align=center;verticalAlign=middle;whiteSpace=wrap;rounded=0;" vertex="1" parent="1">
                    <mxGeometry x="434" y="-140" width="62" height="30" as="geometry"/>
                </mxCell>
                <mxCell id="23" value="&lt;b&gt;pane 3&lt;/b&gt;&lt;br&gt;process 3" style="text;html=1;strokeColor=none;fillColor=none;align=center;verticalAlign=middle;whiteSpace=wrap;rounded=0;" vertex="1" parent="1">
                    <mxGeometry x="539" y="-205" width="62" height="30" as="geometry"/>
                </mxCell>
                <mxCell id="24" value="&lt;b&gt;pane 4&lt;/b&gt;&lt;br&gt;process 4" style="text;html=1;strokeColor=none;fillColor=none;align=center;verticalAlign=middle;whiteSpace=wrap;rounded=0;" vertex="1" parent="1">
                    <mxGeometry x="539" y="-138" width="62" height="30" as="geometry"/>
                </mxCell>
                <mxCell id="27" value="&lt;b&gt;Windows&lt;/b&gt;" style="text;html=1;strokeColor=none;fillColor=none;align=center;verticalAlign=middle;whiteSpace=wrap;rounded=0;" vertex="1" parent="1">
                    <mxGeometry x="479" y="-73" width="104" height="26" as="geometry"/>
                </mxCell>
                <mxCell id="28" value="&lt;b&gt;Session&lt;/b&gt;" style="text;html=1;strokeColor=none;fillColor=none;align=center;verticalAlign=middle;whiteSpace=wrap;rounded=0;" vertex="1" parent="1">
                    <mxGeometry x="349" y="-200" width="60" height="30" as="geometry"/>
                </mxCell>
            </root>
        </mxGraphModel>
    </diagram>
</mxfile>